<?xml version="1.0" standalone="no"?>
<!DOCTYPE svg PUBLIC "-//W3C//DTD SVG 20010904//EN"
 "http://www.w3.org/TR/2001/REC-SVG-20010904/DTD/svg10.dtd">
<svg version="1.0" xmlns="http://www.w3.org/2000/svg"
 width="1024.000000pt" height="1024.000000pt" viewBox="0 0 1024.000000 1024.000000"
 preserveAspectRatio="xMidYMid meet">

<g transform="translate(0.000000,1024.000000) scale(0.100000,-0.100000)"
fill="#000000" stroke="none">
<path d="M1171 8203 c18 -32 165 -285 327 -563 163 -278 334 -572 382 -655 83
-142 213 -365 553 -945 145 -248 480 -821 850 -1455 201 -344 581 -977 780
-1300 72 -115 169 -273 215 -350 159 -261 173 -291 -448 950 -261 522 -477
954 -479 960 -2 5 27 -17 65 -50 237 -205 259 -228 288 -284 69 -136 509 -941
671 -1226 34 -60 147 -261 250 -445 311 -556 486 -860 493 -860 4 0 105 173
225 385 647 1144 805 1428 1183 2130 39 73 55 90 196 211 84 73 154 131 156
129 3 -3 -48 -106 -564 -1135 -414 -824 -472 -942 -456 -925 9 10 408 658 627
1020 67 110 218 364 337 565 230 389 343 583 1065 1820 66 113 174 297 240
410 377 642 422 719 827 1415 79 138 141 251 137 253 -8 3 -260 -77 -961 -304
-630 -205 -1422 -464 -1534 -502 l-108 -37 -122 -235 c-187 -360 -362 -694
-546 -1040 -297 -559 -547 -1034 -576 -1092 l-28 -58 -96 0 -95 0 -99 188
c-54 103 -221 419 -371 702 -276 523 -512 972 -703 1336 l-105 201 -551 181
c-303 100 -693 227 -866 282 -173 56 -507 164 -741 241 -235 76 -432 139 -438
139 -7 0 1 -24 20 -57z m1004 -570 c149 -77 491 -252 760 -388 270 -136 497
-254 505 -261 12 -12 -25 -14 -242 -14 -234 0 -260 2 -290 19 -76 43 -401 212
-404 209 -1 -2 12 -28 30 -58 60 -100 222 -374 255 -434 26 -44 29 -55 15 -46
-11 6 -163 120 -339 253 l-320 242 -50 95 c-28 52 -105 199 -172 325 -67 127
-125 238 -129 248 -5 14 6 10 52 -16 33 -19 181 -97 329 -174z m6256 155 c-16
-29 -81 -150 -144 -268 -63 -118 -133 -250 -156 -292 l-42 -77 -237 -175
c-130 -96 -281 -209 -334 -251 -54 -41 -98 -73 -98 -70 0 6 106 188 243 418
42 70 74 127 71 127 -2 0 -37 -17 -77 -39 -39 -21 -138 -73 -219 -115 l-147
-76 -257 0 c-152 0 -254 4 -248 9 5 5 180 96 389 201 498 253 1247 640 1260
651 24 23 23 4 -4 -43z m-4677 -1182 c12 -10 195 -345 211 -388 6 -15 -3 -18
-73 -20 l-81 -3 120 -210 c66 -115 188 -331 271 -480 83 -148 215 -385 293
-525 171 -304 462 -829 552 -992 36 -65 68 -118 71 -118 9 0 -12 -37 359 635
171 308 350 630 398 715 48 85 149 265 225 400 76 135 180 319 232 410 l95
165 -84 3 -84 3 82 157 c45 86 95 181 111 209 l29 53 240 0 c131 0 239 -4 239
-9 0 -17 -294 -618 -699 -1429 -232 -463 -421 -845 -421 -847 0 -3 21 -5 46
-5 25 0 44 -4 42 -8 -1 -4 -52 -98 -112 -207 -60 -110 -154 -283 -209 -385
-55 -102 -131 -242 -168 -311 l-69 -126 -126 -96 -127 -95 -66 51 c-202 156
-171 118 -328 409 -78 144 -201 371 -273 502 -72 131 -134 245 -137 252 -4 11
6 14 42 14 26 0 45 4 43 8 -1 4 -172 345 -378 757 -342 682 -750 1509 -750
1518 0 2 106 4 235 4 161 1 239 -3 249 -11z m-738 -515 c60 -45 64 -51 220
-341 204 -378 315 -592 311 -596 -5 -5 -498 403 -567 469 -44 42 -74 88 -152
232 -53 99 -151 281 -217 404 -67 123 -121 225 -121 228 0 2 105 -76 233 -173
127 -97 259 -197 293 -223z m4691 312 c-24 -43 -88 -159 -142 -258 -54 -99
-137 -252 -186 -340 l-88 -160 -108 -89 c-249 -208 -493 -406 -499 -406 -7 0
35 79 288 545 l190 350 142 107 c77 59 209 158 291 221 83 63 151 113 153 112
2 -2 -16 -39 -41 -82z"/>
<path d="M4990 8236 c-72 -21 -129 -54 -179 -104 -133 -134 -68 -338 132 -413
83 -32 251 -34 342 -4 78 25 152 86 188 155 25 48 28 63 24 113 -9 103 -67
174 -186 230 -57 27 -77 31 -170 34 -67 1 -123 -2 -151 -11z"/>
<path d="M3935 7923 c-48 -10 -143 -48 -177 -71 -72 -47 -98 -123 -58 -170 27
-32 113 -68 196 -82 l71 -11 39 -81 39 -80 60 7 c225 24 374 125 375 253 1
135 -191 244 -425 241 -55 -1 -109 -3 -120 -6z"/>
<path d="M6025 7916 c-171 -49 -266 -130 -267 -229 -2 -127 145 -226 374 -252
l57 -6 40 79 39 79 79 15 c144 28 213 73 213 138 0 59 -71 124 -178 163 -74
26 -282 34 -357 13z"/>
<path d="M4815 7328 c18 -40 80 -170 137 -288 57 -118 117 -243 133 -278 16
-34 32 -59 36 -55 10 11 329 674 329 685 0 4 -150 8 -334 8 l-335 0 34 -72z"/>
<path d="M4240 7154 c0 -4 33 -70 74 -148 40 -78 113 -217 161 -311 48 -93
141 -271 205 -395 64 -124 188 -363 276 -532 87 -170 162 -308 166 -308 4 0
57 98 117 218 120 236 207 404 542 1049 120 232 219 424 219 427 0 3 -76 6
-169 6 l-169 0 -151 -307 c-83 -170 -204 -417 -269 -550 -64 -133 -119 -242
-122 -243 -4 0 -223 441 -482 973 l-62 127 -168 0 c-92 0 -168 -3 -168 -6z"/>
<path d="M1368 6900 c-59 -32 -91 -96 -96 -194 -5 -102 13 -179 72 -301 94
-196 269 -356 440 -401 103 -28 168 -13 223 49 55 63 68 170 37 296 -23 92
-47 143 -110 238 -163 245 -423 388 -566 313z"/>
<path d="M8670 6898 c-78 -29 -174 -96 -252 -174 -38 -37 -68 -70 -68 -74 0
-4 -11 -20 -25 -36 -34 -39 -98 -165 -125 -244 -15 -45 -22 -90 -22 -145 -1
-105 23 -162 83 -202 37 -25 52 -28 119 -28 70 0 84 4 162 42 147 73 285 219
362 384 52 109 69 187 64 291 -4 78 -8 93 -34 130 -16 24 -45 51 -64 60 -48
23 -133 22 -200 -4z"/>
<path d="M1796 5625 c-131 -33 -233 -113 -284 -223 -22 -47 -28 -74 -30 -158
-3 -87 0 -111 23 -180 68 -204 239 -386 453 -481 211 -94 485 -96 640 -6 69
40 139 115 170 181 23 50 27 70 27 157 0 116 -22 193 -83 294 -45 74 -150 194
-163 185 -5 -3 -8 0 -7 7 2 6 -3 14 -11 17 -9 3 -11 0 -6 -9 5 -8 4 -11 -1 -6
-5 5 -9 12 -9 17 0 33 -207 146 -342 186 -111 33 -287 42 -377 19z"/>
<path d="M8124 5620 c-111 -25 -213 -69 -319 -138 -159 -103 -268 -228 -331
-379 -25 -60 -28 -81 -29 -178 0 -105 2 -114 32 -176 132 -268 538 -319 894
-113 107 62 243 187 244 223 1 9 6 15 12 14 14 -3 60 71 90 142 53 127 57 285
11 387 -31 66 -105 151 -125 144 -8 -3 -11 -1 -8 4 8 13 -81 57 -152 75 -76
20 -219 18 -319 -5z"/>
<path d="M1744 4265 c-46 -70 74 -211 173 -203 75 6 82 98 12 169 -60 61 -155
79 -185 34z"/>
<path d="M8365 4274 c-66 -34 -105 -89 -105 -147 0 -104 149 -81 219 34 23 38
28 98 9 117 -17 17 -87 15 -123 -4z"/>
<path d="M2665 4220 c-109 -22 -242 -94 -304 -165 -19 -22 -46 -64 -60 -95
-22 -46 -26 -68 -25 -142 0 -80 3 -93 37 -160 47 -93 100 -154 183 -213 181
-129 455 -186 676 -140 127 27 324 141 303 175 -4 6 -1 9 6 8 7 -2 26 24 43
57 27 54 31 70 31 150 0 84 -3 95 -37 166 -85 173 -275 305 -510 353 -82 17
-272 20 -343 6z"/>
<path d="M7191 4204 c-284 -72 -496 -270 -515 -482 -16 -182 110 -333 335
-404 65 -20 94 -23 229 -22 139 0 164 3 243 27 100 31 166 62 250 119 51 35
57 42 45 56 -11 15 -11 15 3 5 13 -11 21 -7 48 19 71 69 113 149 131 246 35
196 -113 380 -356 442 -112 29 -287 27 -413 -6z"/>
<path d="M3530 3156 c-115 -25 -197 -87 -222 -168 -22 -75 42 -172 145 -220
155 -74 365 -52 477 48 110 100 79 228 -72 301 -107 52 -212 65 -328 39z"/>
<path d="M6520 3163 c-185 -31 -308 -152 -270 -267 23 -70 80 -119 175 -149
252 -81 554 66 504 246 -33 120 -227 201 -409 170z"/>
<path d="M4107 2626 c-58 -16 -94 -49 -103 -94 -6 -28 -2 -36 28 -65 74 -69
203 -75 275 -13 34 29 38 92 9 124 -43 48 -134 69 -209 48z"/>
<path d="M6030 2631 c-76 -16 -130 -65 -130 -118 0 -49 80 -102 154 -103 56 0
114 20 147 51 54 51 34 129 -41 157 -41 15 -93 20 -130 13z"/>
<path d="M4508 2256 c-26 -13 -35 -50 -18 -71 20 -24 77 -30 105 -11 26 17 34
59 14 72 -26 16 -79 21 -101 10z"/>
<path d="M5638 2249 c-27 -15 -22 -56 7 -75 27 -17 76 -14 102 7 19 17 16 57
-6 69 -25 13 -81 13 -103 -1z"/>
</g>
</svg>
